<svg width="1440" height="856" viewBox="0 0 1440 856" fill="none" xmlns="http://www.w3.org/2000/svg">
<path fill-rule="evenodd" clip-rule="evenodd" d="M1865.84 829.293L1970 855.202V570.202V51.5237L1830.43 37.1837C1692.93 22.8438 1413.75 -5.83627 1136.68 1.33375C982.644 5.3196 827.964 20.3843 673.358 35.4418C549.852 47.4708 426.391 59.4952 303.34 65.8635C26.2573 80.2036 -252.909 65.8637 -390.41 58.6935L-529.993 51.5237L-529.993 357.809V440.656H-530V647.929L-425.833 665.202C-321.666 682.474 -113.334 717.02 95 717.02C214.048 717.02 333.095 705.739 452.143 694.46C541.429 686 630.714 677.54 720 673.838C928.338 665.202 1136.66 682.474 1345 717.02C1553.34 751.565 1761.66 803.384 1865.84 829.293Z" fill="#F9F9F9"/>
</svg>
