<svg width="718" height="966" viewBox="0 0 718 966" fill="none" xmlns="http://www.w3.org/2000/svg">
<path fill-rule="evenodd" clip-rule="evenodd" d="M905.245 186.575C934.799 270.873 791.177 338.255 775.666 428.518C759.862 520.48 867.151 610.555 818.223 692.967C771.065 772.397 653.044 792.497 560.352 791.179C476.584 789.989 419.488 723.205 347.348 686.274C280.123 651.859 196.497 641.785 152.539 582.407C105.283 518.573 82.3277 434.241 101.945 354.784C121.09 277.24 186.678 216.205 254.788 168.263C314.522 126.217 386.758 115.475 458.382 103.89C527.448 92.7194 594.062 90.0485 661.368 102.502C749.011 118.719 877.009 106.036 905.245 186.575Z" fill="url(#paint0_linear)"/>
<defs>
<linearGradient id="paint0_linear" x1="170.84" y1="441.089" x2="1162.99" y2="686.166" gradientUnits="userSpaceOnUse">
<stop offset="0.197917" stop-color="#32C892"/>
<stop offset="0.932292" stop-color="#BEDF94"/>
</linearGradient>
</defs>
</svg>
