<svg width="718" height="966" fill="none" xmlns="http://www.w3.org/2000/svg"><path fill-rule="evenodd" clip-rule="evenodd" d="M905.245 186.575c29.554 84.298-114.068 151.68-129.579 241.943-15.804 91.962 91.485 182.037 42.557 264.449-47.158 79.43-165.179 99.53-257.871 98.212-83.768-1.19-140.864-67.974-213.004-104.905-67.225-34.415-150.851-44.489-194.809-103.867-47.256-63.834-70.211-148.166-50.594-227.623 19.145-77.544 84.733-138.579 152.843-186.521 59.734-42.046 131.97-52.788 203.594-64.373 69.066-11.17 135.68-13.841 202.986-1.388 87.643 16.217 215.641 3.534 243.877 84.073z" fill="url(#paint0_linear)"/><defs><linearGradient id="paint0_linear" x1="170.84" y1="441.089" x2="1162.99" y2="686.166" gradientUnits="userSpaceOnUse"><stop offset=".198" stop-color="#32C892"/><stop offset=".932" stop-color="#BEDF94"/></linearGradient></defs></svg>