<svg width="1440" height="856" fill="none" xmlns="http://www.w3.org/2000/svg"><path fill-rule="evenodd" clip-rule="evenodd" d="M1865.84 829.293L1970 855.202V51.524l-139.57-14.34c-137.5-14.34-416.68-43.02-693.75-35.85-154.036 3.986-308.716 19.05-463.322 34.108C549.852 47.47 426.391 59.495 303.34 65.864c-277.083 14.34-556.249 0-693.75-7.17l-139.583-7.17v389.132H-530v207.273l104.167 17.273C-321.666 682.474-113.334 717.02 95 717.02c119.048 0 238.095-11.281 357.143-22.56C541.429 686 630.714 677.54 720 673.838c208.338-8.636 416.66 8.636 625 43.182 208.34 34.545 416.66 86.364 520.84 112.273z" fill="#F9F9F9"/></svg>