<svg width="525" height="769" fill="none" xmlns="http://www.w3.org/2000/svg"><path fill-rule="evenodd" clip-rule="evenodd" d="M96.134 285.555c21.29-56.344 49.307-110.368 96.952-147.217 48.171-37.256 107.669-55.067 168.491-58.081 62.604-3.103 127.537 4.842 178.83 40.869 51.345 36.064 75.28 96.501 99.286 154.472 25.724 62.118 67.349 128.678 44.092 191.761-23.137 62.755-102.723 77.855-157.594 116.1-52.341 36.484-92.594 95.962-156.058 102.522-65.456 6.766-126.674-29.576-180.271-67.756-53.376-38.024-104.499-84.685-122.271-147.764-17.337-61.535 5.946-125.103 28.543-184.906z" fill="url(#paint0_linear)"/><defs><linearGradient id="paint0_linear" x1="581.197" y1="590.491" x2="140.372" y2="-48.321" gradientUnits="userSpaceOnUse"><stop offset=".198" stop-color="#32C892"/><stop offset=".932" stop-color="#BEDF94"/></linearGradient></defs></svg>