<svg width="474" height="111" fill="none" xmlns="http://www.w3.org/2000/svg"><path d="M42.715 2.239v106.926H22.837V18.889H.207V2.239h42.508zm65.88 108.454c-8.563 0-16.208-2.139-22.936-6.416-6.728-4.379-12.028-10.692-15.902-18.941-3.873-8.35-5.81-18.228-5.81-29.634 0-11.405 1.937-21.233 5.81-29.481 3.874-8.35 9.174-14.664 15.902-18.941C92.387 2.9 100.032.71 108.595.71c8.562 0 16.208 2.19 22.935 6.569 6.83 4.277 12.182 10.59 16.055 18.94 3.874 8.25 5.811 18.077 5.811 29.482 0 11.406-1.937 21.284-5.811 29.634-3.873 8.249-9.225 14.562-16.055 18.941-6.727 4.277-14.373 6.416-22.935 6.416zm0-17.261c7.645 0 13.659-3.157 18.042-9.47 4.486-6.315 6.728-15.734 6.728-28.26 0-12.526-2.242-21.945-6.728-28.26-4.383-6.313-10.397-9.47-18.042-9.47-7.544 0-13.558 3.157-18.043 9.47-4.383 6.315-6.575 15.734-6.575 28.26 0 12.526 2.192 21.945 6.575 28.26 4.485 6.313 10.499 9.47 18.043 9.47zm180.612-65.836v81.569h-19.113V43.787h-30.58l-.765 16.192c-.509 10.795-1.529 19.858-3.058 27.19-1.427 7.23-3.924 12.984-7.492 17.261-3.466 4.175-8.257 6.263-14.373 6.263-2.854 0-6.371-.56-10.55-1.68l.917-16.04c1.427.306 2.65.459 3.67.459 3.873 0 6.778-1.528 8.715-4.583 1.937-3.157 3.16-6.874 3.67-11.15.611-4.38 1.121-10.591 1.529-18.636l1.376-31.467h66.054zm102.192 41.243c0 1.324-.102 3.207-.306 5.651h-64.067c1.122 6.009 4.027 10.795 8.716 14.36 4.791 3.462 10.703 5.193 17.737 5.193 8.97 0 16.36-2.953 22.171-8.86l10.244 11.762c-3.67 4.379-8.308 7.689-13.914 9.929-5.607 2.24-11.927 3.361-18.96 3.361-8.97 0-16.87-1.783-23.7-5.347-6.83-3.564-12.13-8.503-15.902-14.817-3.67-6.415-5.505-13.646-5.505-21.69 0-7.944 1.784-15.072 5.352-21.386 3.67-6.415 8.715-11.405 15.137-14.97 6.422-3.564 13.66-5.346 21.713-5.346 7.951 0 15.035 1.782 21.253 5.346 6.32 3.463 11.213 8.402 14.679 14.817 3.568 6.314 5.352 13.646 5.352 21.997zm-41.284-26.885c-6.116 0-11.315 1.833-15.596 5.5-4.18 3.564-6.728 8.35-7.646 14.358h46.33c-.815-5.906-3.313-10.693-7.492-14.359-4.18-3.666-9.378-5.499-15.596-5.499zm123.88 1.833h-28.593v65.378h-19.113V43.787h-28.746V27.596h76.452v16.191z" fill="url(#paint0_linear)"/><defs><linearGradient id="paint0_linear" x1="60.634" y1="-18.885" x2="344.469" y2="196.316" gradientUnits="userSpaceOnUse"><stop stop-color="#19DB8C"/><stop offset="1" stop-color="#40AB99"/></linearGradient></defs></svg>